<svg width="58" height="71" viewBox="0 0 58 71" fill="none" xmlns="http://www.w3.org/2000/svg">
<path d="M56.5988 5.17806H46.7552C45.63 2.1575 42.7174 0 39.3096 0H19.0381C15.6262 0 12.7106 2.16274 11.5882 5.18908C11.541 5.18247 11.4934 5.17806 11.4445 5.17806H1.05092C0.469721 5.17806 0.00321855 5.65365 0.00390701 6.23499C0.00927702 10.4934 3.47527 13.9561 7.73493 13.9561H11.0956V26.3728H1.05092C0.469721 26.3728 0.00321855 26.8484 0.00390701 27.4297C0.00927702 31.6881 3.47527 35.151 7.73493 35.151H11.0956V47.5676H1.05092C0.469721 47.5676 0.00321855 48.0432 0.00390701 48.6246C0.00927702 52.883 3.47527 56.3458 7.73493 56.3458H11.0956V62.5564C11.0956 66.943 14.6516 70.4991 19.0382 70.4991H23.0518C23.63 70.4991 24.0988 70.0302 24.0988 69.4521C24.0988 68.8739 23.63 68.4051 23.0518 68.4051H19.0381C15.808 68.4048 13.1895 65.7863 13.1895 62.5562V7.94265C13.1895 4.71252 15.808 2.09403 19.0381 2.09403H39.3096C42.5397 2.09403 45.1582 4.71252 45.1582 7.94265V18.6495C45.1582 19.2276 45.6271 19.6965 46.2052 19.6965C46.7834 19.6965 47.2523 19.2276 47.2523 18.6495V13.9561H49.9148C54.1745 13.9561 57.6405 10.4933 57.6458 6.23499C57.6465 5.65379 57.18 5.17806 56.5988 5.17806ZM10.3975 11.8621H7.73493C4.98424 11.8621 2.68753 9.88177 2.19542 7.27209H10.3975V11.8621ZM10.3975 33.0567H7.73493C4.98424 33.0567 2.68753 31.0764 2.19542 28.4667H10.3975V33.0567ZM10.3975 54.2514H7.73493C4.98424 54.2514 2.68753 52.2711 2.19542 49.6614H10.3975V54.2514ZM49.9147 11.8621H47.2523V7.27209H55.4542C54.9621 9.88191 52.6654 11.8621 49.9147 11.8621Z" fill="#BD8D4C"/>
<path d="M56.5985 47.5671H47.252V35.1504H49.9145C54.1742 35.1504 57.6402 31.6879 57.6456 27.4295C57.6462 26.8483 57.1799 26.3725 56.5985 26.3725H47.252V23.5355C47.252 22.9574 46.7831 22.4885 46.205 22.4885C45.6268 22.4885 45.158 22.9574 45.158 23.5355V62.5559C45.158 65.786 42.5395 68.4045 39.3093 68.4045H27.9377C27.3596 68.4045 26.8907 68.8734 26.8907 69.4516C26.8907 70.0297 27.3596 70.4986 27.9377 70.4986H39.3093C43.6959 70.4986 47.252 66.9425 47.252 62.5559V56.3453H49.9145C54.1742 56.3453 57.6402 52.8825 57.6456 48.6241C57.6462 48.0429 57.1797 47.5671 56.5985 47.5671ZM47.252 28.4668H55.454C54.9619 31.0767 52.6652 33.0568 49.9145 33.0568H47.252V28.4668ZM49.9145 54.2514H47.252V49.6614H55.454C54.9619 52.2713 52.6652 54.2514 49.9145 54.2514Z" fill="#BD8D4C"/>
<path d="M32.8097 47.5674H25.5379C21.2751 47.5674 17.8069 51.0355 17.8069 55.2985C17.8069 55.8766 18.2757 56.3455 18.8539 56.3455H19.9218C19.872 56.7371 19.8458 57.1331 19.8458 57.5316C19.8458 62.6751 24.0304 66.8594 29.1736 66.8594C34.3169 66.8594 38.5015 62.6748 38.5015 57.5316C38.5015 57.1331 38.4753 56.7371 38.4255 56.3455H39.4934C40.0716 56.3455 40.5404 55.8768 40.5404 55.2985C40.5406 51.0355 37.0725 47.5674 32.8097 47.5674ZM29.1739 64.7654C25.1852 64.7654 21.9401 61.5202 21.9401 57.5316C21.9401 57.1314 21.9732 56.7349 22.0375 56.3455H36.3105C36.3747 56.7349 36.4079 57.1314 36.4079 57.5316C36.4077 61.5204 33.1626 64.7654 29.1739 64.7654ZM19.9984 54.2514C20.4905 51.6418 22.7873 49.6615 25.5379 49.6615H32.8097C35.5604 49.6615 37.8571 51.6418 38.3492 54.2514H19.9984Z" fill="#BD8D4C"/>
<path d="M32.8097 5.1782H25.5379C21.2751 5.1782 17.8069 8.64626 17.8069 12.9092C17.8069 13.4874 18.2757 13.9562 18.8539 13.9562H19.9218C19.872 14.3478 19.8458 14.7438 19.8458 15.1423C19.8458 20.2858 24.0304 24.4702 29.1736 24.4702C34.3169 24.4702 38.5015 20.2855 38.5015 15.1423C38.5015 14.7438 38.4753 14.3478 38.4255 13.9562H39.4934C40.0716 13.9562 40.5404 13.4874 40.5404 12.9092C40.5406 8.6464 37.0725 5.1782 32.8097 5.1782ZM29.1739 22.3761C25.1852 22.3761 21.9401 19.131 21.9401 15.1423C21.9401 14.7422 21.9732 14.3456 22.0375 13.9562H36.3105C36.3747 14.3456 36.4079 14.7422 36.4079 15.1423C36.4077 19.1311 33.1626 22.3761 29.1739 22.3761ZM19.9984 11.8622C20.4905 9.25252 22.7873 7.27223 25.5379 7.27223H32.8097C35.5604 7.27223 37.8571 9.25252 38.3492 11.8622H19.9984Z" fill="#BD8D4C"/>
<path d="M32.8097 26.3728H25.5379C21.2751 26.3728 17.8069 29.8408 17.8069 34.1038C17.8069 34.682 18.2757 35.1508 18.8539 35.1508H19.9218C19.872 35.5424 19.8458 35.9384 19.8458 36.3369C19.8458 41.4804 24.0304 45.6649 29.1736 45.6649C34.3169 45.6649 38.5015 41.4803 38.5015 36.3369C38.5015 35.9384 38.4753 35.5424 38.4255 35.1508H39.4934C40.0716 35.1508 40.5404 34.682 40.5404 34.1038C40.5406 29.8408 37.0725 26.3728 32.8097 26.3728ZM29.1739 43.5707C25.1852 43.5707 21.9401 40.3256 21.9401 36.3368C21.9401 35.9366 21.9732 35.5401 22.0375 35.1507H36.3105C36.3747 35.5401 36.4079 35.9366 36.4079 36.3368C36.4077 40.3256 33.1626 43.5707 29.1739 43.5707ZM19.9984 33.0566C20.4905 30.447 22.7873 28.4667 25.5379 28.4667H32.8097C35.5604 28.4667 37.8571 30.447 38.3492 33.0566H19.9984Z" fill="#BD8D4C"/>
</svg>
