<svg width="77" height="77" viewBox="0 0 77 77" fill="none" xmlns="http://www.w3.org/2000/svg">
<path d="M75.0634 31.3421H71.0196C70.3948 31.3421 69.8881 31.8488 69.8881 32.4736V35.6285H68.048V32.4735C68.048 31.8486 67.5413 31.3419 66.9165 31.3419H62.4501C61.8252 31.3419 61.3185 31.8486 61.3185 32.4735V35.6284H59.4785V32.4735C59.4785 31.8486 58.9718 31.3419 58.3469 31.3419H54.3031C53.6783 31.3419 53.1716 31.8486 53.1716 32.4735V44.6675H50.108V27.4688H52.8751C53.2464 27.4688 53.6073 27.3044 53.8235 27.0026C54.158 26.5356 54.0918 25.9167 53.7028 25.5325L39.2308 11.2306V8.91197H48.5665C48.9022 8.91197 49.2314 8.77938 49.4512 8.52551C49.7964 8.12655 49.8184 7.56107 49.5342 7.14366L47.7046 4.45599L49.5342 1.76832C49.8184 1.3509 49.7964 0.785423 49.4512 0.386461C49.2314 0.13259 48.9022 0 48.5665 0H38.0994C37.4746 0 36.9679 0.5067 36.9679 1.13156V11.2306L22.5193 25.5094C22.2551 25.7704 22.114 26.1413 22.1722 26.5081C22.2624 27.0754 22.7447 27.4687 23.2914 27.4687H26.0907V33.9552C26.0907 34.58 26.5974 35.0867 27.2223 35.0867C27.8471 35.0867 28.3538 34.58 28.3538 33.9552V27.4687H47.845V45.7932C47.845 45.7951 47.8447 45.7971 47.8447 45.7992V49.2964H46.0057V45.7992C46.0057 45.1743 45.499 44.6676 44.8742 44.6676H40.1502C39.5253 44.6676 39.0186 45.1743 39.0186 45.7992V49.2964H37.1795V45.7992C37.1795 45.1743 36.6728 44.6676 36.0479 44.6676H31.3256C30.7007 44.6676 30.194 45.1743 30.194 45.7992V49.2964H28.3534L28.3537 39.236C28.3537 38.6112 27.847 38.1045 27.2221 38.1045C26.5973 38.1045 26.0906 38.6112 26.0906 39.236V44.6675H23.027V32.4735C23.027 31.8486 22.5203 31.3419 21.8954 31.3419H17.8517C17.2268 31.3419 16.7201 31.8486 16.7201 32.4735V35.6284H14.8804V32.4735C14.8804 31.8486 14.3737 31.3419 13.7488 31.3419H9.28225C8.65739 31.3419 8.15069 31.8486 8.15069 32.4735V35.6284H6.31065V32.4735C6.31065 31.8486 5.80395 31.3419 5.17909 31.3419H1.13546C0.510607 31.3419 0.00390625 31.8486 0.00390625 32.4735V41.0463C0.00390625 41.6712 0.510607 42.1779 1.13546 42.1779H3.79158V75.0597C3.79158 75.6845 4.29828 76.1912 4.92314 76.1912H21.8954C21.8965 76.1912 21.8974 76.1911 21.8983 76.1911H54.3003C54.3012 76.1911 54.3022 76.1912 54.3031 76.1912H71.2756C71.9004 76.1912 72.4071 75.6845 72.4071 75.0597V54.0211C72.4071 53.3962 71.9004 52.8895 71.2756 52.8895C70.6507 52.8895 70.144 53.3962 70.144 54.0211V73.9279H55.4351V45.799C55.4351 45.796 55.4347 45.7932 55.4347 45.7902V42.1779H70.144V48.7404C70.144 49.3653 70.6507 49.872 71.2756 49.872C71.9004 49.872 72.4071 49.3653 72.4071 48.7404V42.1779H75.0633C75.6881 42.1779 76.1948 41.6712 76.1948 41.0463V32.4735C76.195 31.8486 75.6884 31.3421 75.0634 31.3421ZM39.231 2.26311H46.4596L45.4004 3.81923C45.1386 4.20345 45.1386 4.70867 45.4002 5.09275L46.4595 6.64886H39.231V2.26311ZM20.7639 73.9279H6.0547V42.1779H20.7639V73.9279ZM20.764 39.9147H2.26702V33.605H4.04769V36.76C4.04769 37.3848 4.55439 37.8915 5.17924 37.8915H9.28225C9.90711 37.8915 10.4138 37.3848 10.4138 36.76V33.605H12.6171V36.76C12.6171 37.3848 13.1238 37.8915 13.7487 37.8915H17.8518C18.4767 37.8915 18.9834 37.3848 18.9834 36.76V33.605H20.764V39.9147ZM26.0462 25.2057L38.0994 13.2941L50.1527 25.2056L26.0462 25.2057ZM36.9679 73.8596H31.5367V63.9024C31.5367 60.6698 33.8868 57.9775 36.9679 57.4394V73.8596ZM44.662 73.8598H39.231V57.4396C42.312 57.9775 44.662 60.67 44.662 63.9026V73.8598ZM53.172 73.9278H46.9254V63.9024C46.9254 59.036 42.9663 55.0768 38.0997 55.0768C33.2333 55.0768 29.2741 59.036 29.2741 63.9024V73.9278H23.028V46.9306H26.0904V50.4278C26.0904 51.0526 26.5971 51.5593 27.222 51.5593H31.3257C31.9506 51.5593 32.4573 51.0526 32.4573 50.4278V46.9306H34.9165V50.4278C34.9165 51.0526 35.4232 51.5593 36.0481 51.5593H40.1503C40.7753 51.5593 41.2819 51.0526 41.2819 50.4278V46.9306H43.7428V50.4278C43.7428 51.0526 44.2493 51.5593 44.8743 51.5593H48.9764C49.6015 51.5593 50.108 51.0526 50.108 50.4278V46.9306H53.172V73.9278ZM73.9318 39.9147H55.435V33.605H57.2156V36.76C57.2156 37.3848 57.7222 37.8915 58.3472 37.8915H62.4504C63.0754 37.8915 63.5819 37.3848 63.5819 36.76V33.605H65.7852V36.76C65.7852 37.3848 66.2918 37.8915 66.9168 37.8915H71.0199C71.6449 37.8915 72.1515 37.3848 72.1515 36.76V33.605H73.932L73.9318 39.9147Z" fill="white"/>
<path d="M13.07 45.5723C10.6992 45.5723 8.77028 47.5012 8.77028 49.872V56.6611C8.77028 57.2859 9.27698 57.7926 9.90184 57.7926H16.2382C16.8631 57.7926 17.3698 57.2859 17.3698 56.6611V49.872C17.3698 47.5012 15.4409 45.5723 13.07 45.5723ZM15.1068 55.5295H11.0334V49.872C11.0334 48.7491 11.9471 47.8354 13.07 47.8354C14.1929 47.8354 15.1066 48.7491 15.1066 49.872L15.1068 55.5295Z" fill="white"/>
<path d="M66.7031 49.872C66.7031 47.5012 64.7744 45.5723 62.4034 45.5723C60.0324 45.5723 58.1037 47.5012 58.1037 49.872V56.6611C58.1037 57.2859 58.6102 57.7926 59.2352 57.7926H65.5716C66.1966 57.7926 66.7031 57.2859 66.7031 56.6611V49.872ZM64.44 55.5295H60.3668V49.872C60.3668 48.7491 61.2805 47.8354 62.4034 47.8354C63.5263 47.8354 64.44 48.7491 64.44 49.872V55.5295Z" fill="white"/>
<path d="M38.0994 29.3541C35.7285 29.3541 33.7996 31.283 33.7996 33.6539V40.4429C33.7996 41.0678 34.3062 41.5745 34.931 41.5745H41.2675C41.8925 41.5745 42.3991 41.0678 42.3991 40.4429V33.6539C42.3991 31.283 40.4704 29.3541 38.0994 29.3541ZM40.136 39.3113H36.0627V33.6539C36.0627 32.5309 36.9763 31.6172 38.0992 31.6172C39.2221 31.6172 40.136 32.5309 40.136 33.6539V39.3113Z" fill="white"/>
<path d="M11.9382 61.8658H8.77001C8.14516 61.8658 7.63846 62.3725 7.63846 62.9974C7.63846 63.6222 8.14501 64.1289 8.77001 64.1289H11.9382C12.563 64.1289 13.0697 63.6222 13.0697 62.9974C13.0697 62.3724 12.5632 61.8658 11.9382 61.8658Z" fill="white"/>
<path d="M15.5594 65.4867H12.3914C11.7665 65.4867 11.2598 65.9934 11.2598 66.6183C11.2598 67.2431 11.7665 67.7498 12.3914 67.7498H15.5596C16.1844 67.7498 16.6911 67.2431 16.6911 66.6183C16.6911 65.9933 16.1844 65.4867 15.5594 65.4867Z" fill="white"/>
<path d="M61.7234 61.8658H58.5552C57.9302 61.8658 57.4237 62.3725 57.4237 62.9974C57.4237 63.6222 57.9302 64.1289 58.5552 64.1289H61.7234C62.3484 64.1289 62.855 63.6222 62.855 62.9974C62.8548 62.3724 62.3484 61.8658 61.7234 61.8658Z" fill="white"/>
<path d="M65.3448 65.4867H62.1766C61.5516 65.4867 61.0451 65.9934 61.0451 66.6183C61.0451 67.2431 61.5518 67.7498 62.1766 67.7498H65.3448C65.9698 67.7498 66.4763 67.2431 66.4763 66.6183C66.4763 65.9933 65.9699 65.4867 65.3448 65.4867Z" fill="white"/>
<path d="M50.6348 55.0768H47.4667C46.8417 55.0768 46.3351 55.5835 46.3351 56.2084C46.3351 56.8332 46.8418 57.34 47.4667 57.34H50.6348C51.2598 57.34 51.7664 56.8332 51.7664 56.2084C51.7664 55.5835 51.2598 55.0768 50.6348 55.0768Z" fill="white"/>
<path d="M33.364 28.3736H30.1958C29.571 28.3736 29.0643 28.8803 29.0643 29.5052C29.0643 30.13 29.571 30.6367 30.1958 30.6367H33.364C33.9889 30.6367 34.4956 30.13 34.4956 29.5052C34.4956 28.8803 33.9889 28.3736 33.364 28.3736Z" fill="white"/>
<path d="M28.4577 57.7924H25.2895C24.6647 57.7924 24.158 58.2991 24.158 58.924C24.158 59.5488 24.6647 60.0555 25.2895 60.0555H28.4577C29.0826 60.0555 29.5893 59.549 29.5893 58.924C29.5893 58.299 29.0827 57.7924 28.4577 57.7924Z" fill="white"/>
</svg>
