<svg width="55" height="73" viewBox="0 0 55 73" fill="none" xmlns="http://www.w3.org/2000/svg">
<path d="M53.5925 27.9177C54.1779 27.9177 54.6523 27.4432 54.6523 26.8579V21.0432C54.6523 20.4579 54.1779 19.9834 53.5925 19.9834H46.0878V12.1935C46.0878 5.46992 40.6178 0 33.8943 0C31.5434 0 29.2891 0.665124 27.3271 1.92641C25.4304 0.709352 23.1781 0 20.7621 0C14.0385 0 8.56841 5.46992 8.56841 12.1935V19.9832H1.06369C0.478409 19.9832 0.00390625 20.4577 0.00390625 21.043V28.0687C0.00390625 28.654 0.478409 29.1285 1.06369 29.1285C1.64898 29.1285 2.12348 28.654 2.12348 28.0687V22.1028H37.6872V54.9677C37.6872 55.553 38.1615 56.0275 38.747 56.0275C39.3324 56.0275 39.8068 55.553 39.8068 54.9677V22.103H45.2529V64.6457L39.8068 69.0643V59.9134C39.8068 59.3281 39.3324 58.8536 38.747 58.8536C38.1615 58.8536 37.6872 59.3281 37.6872 59.9134V70.2287H2.12348V33.0145C2.12348 32.4293 1.64898 31.9548 1.06369 31.9548C0.478409 31.9548 0.00390625 32.4293 0.00390625 33.0145V71.2885C0.00390625 71.8738 0.478409 72.3483 1.06369 72.3483H53.5925C54.1779 72.3483 54.6523 71.8738 54.6523 71.2885V31.8036C54.6523 31.2183 54.1779 30.7438 53.5925 30.7438C53.0071 30.7438 52.5327 31.2183 52.5327 31.8036V69.0088L47.3724 64.658V22.103H52.5327V26.8579C52.5327 27.4432 53.0072 27.9177 53.5925 27.9177ZM46.2997 66.5258L50.6913 70.2287H41.7357L46.2997 66.5258ZM33.8943 2.11958C39.4491 2.11958 43.9682 6.63866 43.9682 12.1935V19.9832H41.5201V12.1935C41.5201 7.98855 38.0992 4.56769 33.8943 4.56769C32.8092 4.56769 31.7459 4.79759 30.7689 5.23833C30.2856 4.54522 29.7324 3.90497 29.1194 3.32689C30.5802 2.53487 32.2069 2.11958 33.8943 2.11958ZM10.688 12.1935C10.688 6.63866 15.2072 2.11958 20.7621 2.11958C26.3169 2.11958 30.836 6.63866 30.836 12.1935V19.9832H28.3879V12.1935C28.3879 7.98855 24.967 4.56769 20.7621 4.56769C16.5571 4.56769 13.1361 7.98855 13.1361 12.1935V19.9832H10.688V12.1935ZM21.7006 19.9834H15.2557V12.1935C15.2557 9.15728 17.7258 6.68727 20.7621 6.68727C21.4906 6.68727 22.1859 6.83083 22.8229 7.08886C22.0868 8.68236 21.7006 10.4263 21.7006 12.1935V19.9834ZM23.8202 12.1935C23.8202 10.8402 24.0945 9.50391 24.6184 8.26805C25.6358 9.26764 26.2683 10.6578 26.2683 12.1935V19.9832H23.8202V12.1935ZM32.9556 19.9834V12.1935C32.9556 10.3724 32.5514 8.64477 31.8326 7.09154C32.4833 6.82759 33.1815 6.68727 33.8941 6.68727C36.9302 6.68727 39.4004 9.15728 39.4004 12.1935V19.9832L32.9556 19.9834Z" fill="#BD8D4C"/>
</svg>
