<svg width="72" height="72" viewBox="0 0 72 72" fill="none" xmlns="http://www.w3.org/2000/svg">
<path d="M71.1597 69.6788L56.3691 55.2457C56.7664 54.2953 56.9866 53.2531 56.9866 52.1602V17.6748C56.9866 13.2408 53.3923 9.64651 48.9583 9.64651H36.6857V7.64953C38.1682 7.38267 39.2969 6.08379 39.2969 4.52559V2.12308H41.206C43.0614 2.12308 44.5655 3.62723 44.5655 5.48261V5.99889C44.5655 6.58025 45.0134 7.08703 45.5943 7.10449C46.1954 7.12264 46.6886 6.64057 46.6886 6.04344V5.48247C46.6886 2.4546 44.2339 0 41.206 0H29.6868C26.6589 0 24.2042 2.45474 24.2042 5.48261V5.99889C24.2042 6.58025 24.652 7.08703 25.233 7.10449C25.834 7.12264 26.3273 6.64057 26.3273 6.04344V5.48247C26.3273 3.62709 27.8314 2.12294 29.6868 2.12294H31.5961V4.52559C31.5961 6.20641 32.9088 7.5853 34.5625 7.69324V9.64679H31.9917C31.4055 9.64679 30.9302 10.122 30.9302 10.7083C30.9302 11.2945 31.4055 11.7697 31.9917 11.7697H48.9583C52.2198 11.7697 54.8635 14.4137 54.8635 17.6749V52.1602C54.8635 55.4215 52.2195 58.0654 48.9583 58.0654H43.1953V56.4153C43.1953 54.153 41.3613 52.3191 39.0991 52.3191H31.7941C29.5318 52.3191 27.6979 54.1531 27.6979 56.4153V58.0654H21.9348C18.6733 58.0654 16.0296 55.4214 16.0296 52.1602V17.6748C16.0296 14.4133 18.6735 11.7696 21.9348 11.7696H27.0381C27.6243 11.7696 28.0996 11.2944 28.0996 10.7081C28.0996 10.1219 27.6243 9.64665 27.0381 9.64665H21.9348C17.5008 9.64665 13.9065 13.2409 13.9065 17.6749V52.1602C13.9065 53.3322 14.1609 54.4452 14.6145 55.4502L0.323991 69.3958C-0.0955138 69.8052 -0.103753 70.4773 0.305697 70.8968C0.513773 71.1099 0.78944 71.217 1.06553 71.217C1.33281 71.217 1.60038 71.1166 1.80692 70.9153L15.7663 57.2924C16.2888 57.9193 16.9053 58.4641 17.5931 58.9081L9.68841 69.5213C9.33831 69.9915 9.43551 70.6565 9.90571 71.0067C10.096 71.1486 10.3185 71.2169 10.5389 71.2169C10.8629 71.2169 11.1827 71.0692 11.391 70.7893L13.4469 68.0287H57.8238L60.0908 71.0724C60.2993 71.3522 60.619 71.5 60.943 71.5C61.1846 71.5 61.4284 71.4179 61.63 71.2469C62.0618 70.8809 62.11 70.2292 61.7719 69.7752L53.5516 58.7385C54.196 58.2873 54.7706 57.744 55.2577 57.1278L69.6767 71.1982C69.8831 71.3996 70.1507 71.5 70.418 71.5C70.6939 71.5 70.9699 71.393 71.1778 71.1798C71.5875 70.7603 71.5794 70.0881 71.1597 69.6788ZM34.771 5.57785C34.1909 5.57771 33.719 5.10583 33.719 4.52573V2.12308H37.1736V4.52573C37.1736 5.10583 36.7018 5.57785 36.1215 5.57785H34.771ZM29.8207 56.4153C29.8207 55.3271 30.706 54.442 31.794 54.442H39.099C40.1871 54.442 41.0722 55.3273 41.0722 56.4153V58.0654H29.8209L29.8207 56.4153ZM56.2428 65.9059H15.0283L19.5547 59.8284C20.307 60.0622 21.1062 60.1884 21.9343 60.1884H48.9582C49.8986 60.1884 50.8008 60.0245 51.6401 59.7262L56.2428 65.9059Z" fill="#BD8D4C"/>
<path d="M51.5814 18.9885H40.6472C40.154 16.5691 38.0097 14.7429 35.4467 14.7429C32.8837 14.7429 30.7394 16.5689 30.2462 18.9885H19.3126C18.7264 18.9885 18.2512 19.4637 18.2512 20.0499V40.4313C18.2512 41.0175 18.7264 41.4927 19.3126 41.4927H39.9178C40.5041 41.4927 40.9793 41.0175 40.9793 40.4313C40.9793 39.845 40.5041 39.3698 39.9178 39.3698H20.374V21.1116H30.2459C30.7388 23.5312 32.8834 25.3579 35.4465 25.3579C38.0097 25.3579 40.1542 23.5314 40.6472 21.1116H50.5198V39.3698H44.8714C44.2852 39.3698 43.81 39.845 43.81 40.4313C43.81 41.0175 44.2852 41.4927 44.8714 41.4927H51.5813C52.1675 41.4927 52.6427 41.0175 52.6427 40.4313V20.0499C52.6429 19.4637 52.1676 18.9885 51.5814 18.9885ZM35.4465 23.2346C33.6906 23.2346 32.2621 21.8062 32.2621 20.0502C32.2621 18.2943 33.6906 16.8658 35.4465 16.8658C37.2025 16.8658 38.6309 18.2943 38.6309 20.0502C38.6309 21.8062 37.2025 23.2346 35.4465 23.2346Z" fill="#BD8D4C"/>
<path d="M27.6245 43.3328H19.3126C18.7264 43.3328 18.2512 43.808 18.2512 44.3942V48.6396C18.2512 49.2258 18.7264 49.701 19.3126 49.701H27.6245C28.2108 49.701 28.686 49.2258 28.686 48.6396V44.3942C28.686 43.8081 28.2108 43.3328 27.6245 43.3328ZM26.5629 47.5781H20.3741V45.4558H26.5629V47.5781Z" fill="#BD8D4C"/>
<path d="M51.5814 43.3328H43.2693C42.6831 43.3328 42.2079 43.808 42.2079 44.3942V48.6396C42.2079 49.2258 42.6831 49.701 43.2693 49.701H51.5814C52.1676 49.701 52.6428 49.2258 52.6428 48.6396V44.3942C52.643 43.8081 52.1676 43.3328 51.5814 43.3328ZM50.5199 47.5781H44.3309V45.4558H50.5199V47.5781Z" fill="#BD8D4C"/>
</svg>
